<?xml version='1.0' encoding='UTF-8' standalone='no' ?><svg xmlns="http://www.w3.org/2000/svg" xmlns:scribmaster="http://scribmaster.com/scribmaster" xmlns:sodipodi="http://sodipodi.sourceforge.net/DTD/sodipodi-0.dtd" xmlns:inkscape="http://www.inkscape.org/namespaces/inkscape" xmlns:xlink="http://www.w3.org/1999/xlink" version="1.1" width="3000" height="2000"><sodipodi:namedview id="ScribMaster" /><filter id="blur"><feGaussianBlur stdDeviation="5.0" /></filter><defs /><g id="1550952483683" transform="matrix(1.576657,0,0,1.576657,-870.653076,-1010.793091)" style="opacity:1.0"><g id="1550952382609" inkscape:groupmode="layer" transform="matrix(1,0,0,1,0,0)" style="opacity:1.0"><path transform="matrix(1,0,0,1,0,0)" d="M 1049.0627 1247.7373 L 1048.7704 1247.7373 L 1048.4062 1247.5911 L 1048.0396 1247.5911 L 1047.8191 1247.5193 L 1047.4548 1247.445 L 1047.2344 1247.373 L 1047.0164 1247.445 L 1046.724 1247.5193 L 1046.5034 1247.5911 L 1046.3573 1247.6655 L 1046.065 1247.7373 L 1045.9906 1247.8835 L 1045.8445 1248.0297 L 1045.6265 1248.104 L 1045.5521 1248.2501 L 1045.4802 1248.322 L 1045.3341 1248.4681 L 1045.2598 1248.5425 L 1045.1135 1248.6143 L 1045.0393 1248.763 L 1044.8931 1248.8348 L 1044.7468 1248.9092 L 1044.675 1248.981 L 1044.5288 1248.981 L 1044.3827 1249.0554 L 1044.2366 1249.1272 L 1044.0903 1249.1272 L 1044.016 1249.2015 L 1043.9441 1249.2015 L 1043.798 1249.2734 L 1043.7236 1249.2734 L 1043.6493 1249.3477 L 1043.5775 1249.3477 L 1043.5032 1249.3477 L 1043.4313 1249.3477 L 1043.4313 1249.2734 L 1043.4313 1249.2015 L 1043.5032 1249.1272 L 1043.5775 1249.0554 L 1043.6493 1248.981 L 1043.798 1248.9092 L 1044.016 1248.8348 L 1044.2366 1248.6887 L 1044.3827 1248.5425 L 1044.675 1248.3962 L 1045.0393 1248.1758 L 1045.3341 1248.0297 L 1045.6982 1247.8115 L 1046.2112 1247.5911 L 1046.724 1247.2988 L 1047.2344 1247.0063 L 1047.9678 1246.6396 L 1048.6986 1246.2755 L 1049.5757 1245.8345 L 1050.527 1245.2498 L 1051.6245 1244.7395 L 1052.794 1244.1523 L 1053.9658 1243.4214 L 1055.2096 1242.6904 L 1056.5251 1241.8853 L 1057.915 1241.0083 L 1059.3049 1240.2031 L 1060.7693 1239.1798 L 1062.3053 1238.154 L 1063.7671 1237.0566 L 1065.3031 1235.9614 L 1066.8392 1234.7178 L 1068.3035 1233.474 L 1069.9114 1232.156 L 1071.668 1230.6942 L 1073.2783 1229.3043 L 1075.0325 1227.7683 L 1076.8608 1226.304 L 1078.6174 1224.8423 L 1080.4459 1223.2318 L 1082.2025 1221.6958 L 1083.9565 1220.234 L 1085.8594 1218.7698 L 1087.6877 1217.308 L 1089.5906 1215.8438 L 1091.3447 1214.5282 L 1093.0294 1213.1383 L 1094.7834 1211.7483 L 1096.4658 1210.4303 L 1098.0762 1209.0404 L 1099.6841 1207.7249 L 1101.3665 1206.335 L 1103.051 1205.0168 L 1104.7334 1203.7013 L 1106.3413 1202.3114 L 1107.8774 1200.9214 L 1109.4878 1199.6034 L 1111.0957 1198.2878 L 1112.4856 1197.1184 L 1113.95 1195.9465 L 1115.4116 1194.849 L 1116.7297 1193.8257 L 1118.0452 1192.8025 L 1119.2172 1191.8511 L 1120.3865 1191.0459 L 1121.4122 1190.169 L 1122.3611 1189.5099 L 1123.3868 1188.8508 L 1124.3383 1188.2661 L 1125.141 1187.6814 L 1126.0205 1187.3147 L 1126.7513 1186.8044 L 1127.4822 1186.5095 L 1128.1414 1186.2173 L 1128.8003 1185.9991 L 1129.385 1185.853 L 1129.898 1185.7787 L 1130.4825 1185.7787 L 1130.9211 1185.7787 L 1131.2134 1185.9248 L 1131.5801 1186.071 L 1131.8726 1186.3634 L 1132.0906 1186.6558 L 1132.311 1186.9506 L 1132.4572 1187.3892 L 1132.6033 1187.9738 L 1132.6777 1188.5585 L 1132.6777 1189.1432 L 1132.6777 1189.8765 L 1132.5315 1190.6792 L 1132.3828 1191.5588 L 1132.1648 1192.6564 L 1131.8726 1193.7515 L 1131.5801 1194.9951 L 1131.0673 1196.3132 L 1130.6287 1197.7031 L 1130.116 1199.2393 L 1129.4568 1200.7753 L 1128.8003 1202.4575 L 1128.0669 1204.2141 L 1127.19 1205.8964 L 1126.3129 1207.871 L 1125.2871 1209.6995 L 1124.2639 1211.9663 L 1123.0945 1214.0872 L 1121.9226 1216.3567 L 1120.679 1218.9902 L 1119.3633 1221.5496 L 1117.9734 1224.3293 L 1116.4373 1227.1836 L 1114.8269 1229.9609 L 1113.219 1233.1074 L 1111.4624 1236.4719 L 1109.7802 1239.7645 L 1107.8774 1243.129 L 1106.049 1246.6396 L 1104.1462 1250.0786 L 1102.1716 1253.5894 L 1100.197 1257.1743 L 1098.2224 1260.9055 L 1096.3196 1264.6367 L 1094.345 1268.5859 L 1092.4423 1272.4633 L 1090.4677 1276.4125 L 1088.493 1280.3617 L 1086.6646 1284.3134 L 1084.7618 1288.3369 L 1082.8591 1292.5785 L 1081.0306 1296.8944 L 1079.2021 1301.2102 L 1077.3738 1305.4543 L 1075.5454 1309.6959 L 1073.7888 1314.0862 L 1072.0347 1318.5482 L 1070.1318 1323.082 L 1068.4497 1327.6904 L 1066.6212 1332.2268 L 1064.8646 1336.7632 L 1063.108 1341.2252 L 1061.2078 1345.5411 L 1059.2307 1350.075 L 1057.3303 1354.6115 L 1055.5737 1358.9272 L 1053.5991 1363.4612 L 1051.6245 1367.7053 L 1049.6499 1371.9469 L 1047.6729 1376.1909 L 1045.6982 1380.5068 L 1043.8699 1384.7483 L 1041.8953 1388.9924 L 1040.1387 1393.0879 L 1038.3845 1397.0396 L 1036.6998 1400.7683 L 1034.9457 1404.5737 L 1033.1891 1408.0845 L 1031.5068 1411.8157 L 1029.9707 1415.1058 L 1028.5808 1418.1062 L 1027.1909 1421.1782 L 1025.8754 1423.8838 L 1024.7778 1426.2993 L 1023.60596 1428.7869 L 1022.65704 1430.9795 L 1021.8518 1432.9541 L 1021.11847 1434.9312 L 1020.5338 1436.6135 L 1020.0952 1438.0034 L 1019.65674 1439.2471 L 1019.3644 1440.4165 L 1019.072 1441.2217 L 1018.92584 1442.0988 L 1018.8515 1442.7578 L 1018.77966 1443.2706 L 1018.77966 1443.7092 L 1018.77966 1444.0015 L 1018.92584 1444.0734 L 1019.072 1444.0734 L 1019.29004 1444.0734 L 1019.65674 1443.8553 L 1020.02344 1443.4886 L 1020.4619 1443.122 L 1020.90045 1442.4655 L 1021.339 1441.8807 L 1021.9237 1441.0012 L 1022.5084 1439.8318 L 1023.0956 1438.7343" scribmaster:penstyle="draw" style="stroke:#0000FF;stroke-width:5.0;stroke-linejoin:round;stroke-linecap:round;stroke-opacity:1.0;fill:none" /><path transform="matrix(1,0,0,1,0,0)" d="M 1058.428 1354.9756 L 1058.428 1355.05 L 1058.4998 1355.1962 L 1058.4998 1355.3423 L 1058.4998 1355.4166 L 1058.4998 1355.6346 L 1058.4998 1355.709 L 1058.4998 1355.8552 L 1058.5741 1355.927 L 1058.646 1356.0732 L 1058.7202 1356.2194 L 1058.7921 1356.2194 L 1058.9382 1356.2937 L 1059.0127 1356.2937 L 1059.0845 1356.2937 L 1059.1588 1356.2194 L 1059.2307 1356.2194 L 1059.3793 1356.2194 L 1059.5973 1356.1475 L 1059.7435 1356.0732 L 1059.8896 1356.0013 L 1060.182 1355.927 L 1060.3282 1355.7808 L 1060.623 1355.6346 L 1060.9154 1355.4885 L 1061.2795 1355.2681 L 1061.5719 1355.1218 L 1061.9386 1354.9038 L 1062.3772 1354.6833 L 1062.6694 1354.4653 L 1063.108 1354.1729 L 1063.5491 1353.8806 L 1063.9875 1353.5857 L 1064.426 1353.2935 L 1064.7185 1352.6368 L 1065.0107 1352.2701 L 1065.4492 1351.9036 L 1065.9622 1351.3931 L 1066.4751 1351.0264 L 1066.9854 1350.5879 L 1067.5701 1350.1494 L 1068.1572 1349.7108 L 1068.8138 1349.198 L 1069.3267 1348.539 L 1069.9114 1347.9543 L 1070.6448 1347.2234 L 1071.5936 1346.5643 L 1072.4731 1345.7592 L 1073.4246 1344.9539 L 1074.4478 1343.9307 L 1075.5454 1342.9792 L 1076.7891 1341.8818 L 1078.1046 1340.8585 L 1079.4226 1339.761 L 1080.9587 1338.5916 L 1082.6411 1337.2736 L 1084.249 1335.958 L 1086.0056 1334.7142 L 1087.834 1333.1782 L 1089.5906 1331.7882 L 1091.4908 1330.3983 L 1093.468 1329.2264 L 1095.4426 1327.8365 L 1097.4172 1326.4491 L 1099.6123 1325.1311 L 1101.733 1323.6693 L 1103.8538 1322.2793 L 1105.977 1320.7408 L 1108.0979 1319.279 L 1110.3649 1317.8174 L 1112.4138 1316.353 L 1114.5345 1314.8889 L 1116.6553 1313.3528 L 1118.7043 1311.8167 L 1120.8251 1310.2805 L 1122.8021 1308.8188 L 1124.7024 1307.5007 L 1126.6052 1306.1108 L 1128.4336 1304.9414 L 1130.1902 1303.7721 L 1132.0186 1302.6002 L 1133.8472 1301.6488 L 1135.4575 1300.7717 L 1137.1398 1299.8948 L 1138.7477 1299.0895 L 1140.2837 1298.5049 L 1141.8198 1297.9202 L 1143.284 1297.261 L 1144.5278 1296.7483 L 1145.9895 1296.1636 L 1147.1614 1295.7969 L 1148.4052 1295.4326 L 1149.5027 1295.1403 L 1150.5978 1294.8479 L 1151.5492 1294.7737 L 1152.575 1294.6274 L 1153.5262 1294.5531 L 1154.329 1294.5531 L 1155.2085 1294.5531 L 1156.0112 1294.7737 L 1156.6703 1295.1403 L 1157.3293 1295.5044 L 1157.8422 1295.943 L 1157.9883 1296.4558 L 1158.1345 1296.8225 L 1158.2063 1297.333" scribmaster:penstyle="draw" style="stroke:#0000FF;stroke-width:5.0;stroke-linejoin:round;stroke-linecap:round;stroke-opacity:1.0;fill:none" /><path transform="matrix(1,0,0,1,0,0)" d="M 1175.1776 1191.705 L 1175.0315 1190.7537 L 1174.9596 1189.8022 L 1174.9596 1189.0713 L 1174.8853 1188.2661 L 1174.8135 1187.6072 L 1174.8853 1186.9506 L 1174.8853 1186.3634 L 1175.0315 1185.7787 L 1175.0315 1185.194 L 1175.1057 1184.7554 L 1175.1057 1184.1707 L 1175.1057 1183.7297 L 1175.1776 1183.4374 L 1175.1776 1183.0732 L 1175.252 1182.7065 L 1175.3237 1182.4142 L 1175.3237 1182.1218 L 1175.3981 1181.9014 L 1175.47 1181.6833 L 1175.47 1181.4628 L 1175.47 1181.2448 L 1175.47 1181.0986 L 1175.47 1181.0242 L 1175.47 1180.878 L 1175.47 1180.8037 L 1175.47 1180.7319 L 1175.47 1180.6576 L 1175.3981 1180.5115 L 1175.3981 1180.3652 L 1175.3981 1180.2935 L 1175.3237 1180.2935 L 1175.252 1180.2935 L 1175.1776 1180.2935 L 1175.1057 1180.2935 L 1175.0315 1180.2935 L 1175.0315 1180.5115 L 1174.9596 1180.5857 L 1174.9596 1180.7319 L 1174.8135 1180.95 L 1174.739 1181.0242 L 1174.739 1181.2448 L 1174.6648 1181.3909 L 1174.6648 1181.6833 L 1174.5929 1181.9014 L 1174.5186 1182.3398 L 1174.4468 1182.6346 L 1174.3723 1182.9988 L 1174.3005 1183.3655 L 1174.2262 1183.9502 L 1174.1543 1184.4631 L 1174.0801 1184.9734 L 1174.0082 1185.6326 L 1173.9338 1186.3634 L 1173.862 1187.0967 L 1173.7877 1187.8994 L 1173.7158 1188.7046 L 1173.6416 1189.8022 L 1173.4954 1190.8998 L 1173.4235 1192.1436 L 1173.2749 1193.6052 L 1173.1287 1194.9951 L 1172.9824 1196.6056 L 1172.7644 1198.3622 L 1172.6183 1199.9701 L 1172.3259 1201.9447 L 1172.0336 1203.9193 L 1171.7388 1205.9683 L 1171.3745 1208.0891 L 1171.0823 1210.5046 L 1170.7898 1212.846 L 1170.3489 1215.1848 L 1169.9846 1217.9646 L 1169.4718 1220.5981 L 1169.0332 1223.5242 L 1168.3743 1226.4502 L 1167.7896 1229.3043 L 1167.1305 1232.4482 L 1166.5459 1235.8153 L 1165.815 1239.1798 L 1165.0098 1242.5443 L 1164.2046 1246.1294 L 1163.3993 1249.6401 L 1162.5222 1253.2251 L 1161.499 1256.882 L 1160.5476 1260.5388 L 1159.5962 1264.4161 L 1158.573 1268.5115 L 1157.5474 1272.6094 L 1156.4523 1276.7792 L 1155.2085 1280.8745 L 1154.111 1285.1904 L 1152.8672 1289.5807 L 1151.6235 1293.9684 L 1150.2336 1298.4304 L 1148.9155 1303.0387 L 1147.4539 1307.647 L 1145.9895 1312.1833 L 1144.5278 1316.7197 L 1142.7712 1321.2537 L 1141.089 1325.79 L 1139.4067 1330.3983 L 1137.7244 1334.8604 L 1136.114 1339.3967 L 1134.2856 1343.6384 L 1132.6033 1347.8799 L 1130.9211 1352.1958 L 1129.2388 1356.44 L 1127.7028 1360.3173 L 1126.0923 1364.2665 L 1124.7024 1368.0696 L 1123.3868 1371.5083 L 1122.1431 1375.019 L 1121.0457 1378.2399 L 1120.0942 1381.4583 L 1119.071 1384.6023 L 1118.2657 1387.3821 L 1117.6067 1389.7952 L 1116.8759 1392.1365 L 1116.2911 1394.4778 L 1115.9246 1396.5985 L 1115.486 1398.6475 L 1115.2654 1400.4758 L 1115.1193 1402.1582 L 1114.9731 1403.8403 L 1114.9012 1405.2302 L 1114.9012 1406.4021 L 1114.8269 1407.4998 L 1114.8269 1408.4487 L 1114.9012 1409.3281 L 1114.9731 1410.0591 L 1115.0474 1410.718 L 1115.1193 1411.1566 L 1115.2654 1411.5232 L 1115.4116 1411.8157 L 1115.5603 1412.0337 L 1115.7064 1412.2542 L 1115.8525 1412.3259 L 1115.9988 1412.4004 L 1116.145 1412.4722 L 1116.363 1412.4722 L 1116.5835 1412.4722 L 1116.8015 1412.4004 L 1117.022 1412.4004 L 1117.2426 1412.2542 L 1117.3887 1412.1798 L 1117.6067 1411.9618 L 1117.681 1411.8157 L 1117.8271 1411.5232 L 1117.9734 1411.2285 L 1118.1196 1410.8643 L 1118.2657 1410.4976 L 1118.3401 1410.0591 L 1118.4119 1409.5461 L 1118.5581 1409.0359 L 1118.6324 1408.4487 L 1118.7043 1407.864 L 1118.7043 1407.2793 L 1118.7786 1406.6201 L 1118.9248 1405.8894 L 1118.9966 1405.3047 L 1119.071 1404.5737 L 1119.2891 1403.7686 L 1119.3633 1402.9634 L 1119.5095 1402.1582" scribmaster:penstyle="draw" style="stroke:#0000FF;stroke-width:5.0;stroke-linejoin:round;stroke-linecap:round;stroke-opacity:1.0;fill:none" /><path transform="matrix(1,0,0,1,0,0)" d="M 1221.7036 1343.4178 L 1222.1421 1342.1741 L 1222.5806 1340.8585 L 1222.5806 1339.6892 L 1222.4344 1338.5916 L 1222.3601 1337.4197 L 1222.0677 1336.176 L 1221.7754 1335.0808 L 1221.5574 1334.2014 L 1221.3369 1333.3243 L 1221.0444 1332.519 L 1220.824 1331.7139 L 1220.3855 1330.8369 L 1220.0212 1330.0317 L 1219.7264 1329.2264 L 1219.2161 1328.3494 L 1218.8494 1327.5442 L 1218.4109 1326.8877 L 1217.8262 1326.1543 L 1217.3132 1325.4978 L 1216.7286 1324.9105 L 1215.9978 1324.1797 L 1215.4849 1323.6693 L 1214.8259 1323.082 L 1214.095 1322.4974 L 1213.5103 1321.9846 L 1212.8513 1321.546 L 1212.1921 1321.0356 L 1211.5356 1320.669 L 1210.9485 1320.2305 L 1210.1458 1319.8638 L 1209.4868 1319.5714 L 1208.8276 1319.279 L 1208.0968 1318.9867 L 1207.366 1318.6943 L 1206.6326 1318.5482 L 1205.9017 1318.5482 L 1205.1709 1318.4021 L 1204.3657 1318.3276 L 1203.5604 1318.3276 L 1202.7552 1318.3276 L 1201.9525 1318.3276 L 1201.073 1318.4739 L 1200.124 1318.6201 L 1199.2445 1318.8406 L 1198.2932 1319.2048 L 1197.416 1319.4995 L 1196.4647 1319.8638 L 1195.3672 1320.2305 L 1194.344 1320.669 L 1193.2463 1321.1074 L 1192.2231 1321.6204 L 1191.1256 1322.2051 L 1190.0281 1322.7898 L 1188.9304 1323.5206 L 1187.9072 1324.1797 L 1186.7354 1324.9105 L 1185.6378 1325.6439 L 1184.5403 1326.521 L 1183.4452 1327.5442 L 1182.4194 1328.6417 L 1181.468 1329.7393 L 1180.4448 1330.983 L 1179.4216 1332.519 L 1178.396 1333.9834 L 1177.5188 1335.5913 L 1176.6418 1337.2017 L 1175.6904 1338.8096 L 1174.8853 1340.7124 L 1174.0801 1342.5408 L 1173.2749 1344.2974 L 1172.4722 1346.272 L 1171.667 1348.0286 L 1170.936 1350.075 L 1170.2026 1351.8315 L 1169.6179 1353.7319 L 1169.0332 1355.5627 L 1168.5205 1357.3912 L 1167.9358 1359.2197 L 1167.4972 1361.0481 L 1167.0586 1362.8047 L 1166.7664 1364.4869 L 1166.3997 1366.2411 L 1166.1792 1367.9977 L 1166.033 1369.6056 L 1165.9612 1371.1442 L 1165.8867 1372.6802 L 1165.8867 1373.9214 L 1165.9612 1375.2395 L 1166.1792 1376.4089 L 1166.4739 1377.6526 L 1166.8381 1378.8245 L 1167.2766 1379.7759 L 1167.6433 1380.8711 L 1168.01 1381.7505 L 1168.5205 1382.6277 L 1169.0332 1383.2866 L 1169.5461 1384.0176 L 1170.1309 1384.7483 L 1170.7898 1385.4792 L 1171.3745 1386.0664 L 1172.0336 1386.5769 L 1172.6183 1387.0178 L 1173.2749 1387.3821 L 1174.0082 1387.6743 L 1174.739 1387.6743 L 1175.47 1387.7488 L 1176.2751 1387.7488 L 1177.1522 1387.7488 L 1178.0317 1387.7488 L 1178.9088 1387.3821 L 1179.8601 1387.0896 L 1180.8115 1386.6511 L 1181.8347 1386.1383 L 1183.0042 1385.4792 L 1184.176 1384.7483 L 1185.3455 1383.9431 L 1186.5173 1383.0662 L 1187.833 1382.261 L 1189.151 1381.1633 L 1190.4666 1379.9221 L 1191.7847 1378.604 L 1193.1746 1377.2141 L 1194.4158 1375.6062 L 1195.7339 1374.0701 L 1197.0494 1372.3854 L 1198.2213 1370.6313 L 1199.4651 1368.949 L 1200.7087 1366.9744 L 1201.9525 1365.2897 L 1203.05 1363.4612 L 1204.1451 1361.7072 L 1205.0247 1360.0967 L 1205.9761 1358.4146 L 1206.9249 1356.8784 L 1207.7302 1355.2681 L 1208.461 1353.7319 L 1209.1201 1352.4163 L 1209.6329 1351.1726 L 1210.1458 1350.0032 L 1210.51 1348.7595 L 1210.8022 1347.5876 L 1211.0947 1346.4182 L 1211.2408 1345.3206 L 1211.3152 1344.1512 L 1211.3894 1343.1255 L 1211.3894 1342.1741 L 1211.3894 1341.3713 L 1211.3152 1340.5662 L 1211.2408 1339.6892 L 1211.0947 1339.03 L 1211.0228 1338.2993 L 1210.8022 1337.7864 L 1210.6561 1337.3479 L 1210.4381 1336.9093 L 1210.292 1336.5427 L 1210.0714 1336.3965 L 1209.779 1336.176 L 1209.5586 1336.1041 L 1209.4124 1336.1041 L 1209.1201 1336.1041 L 1208.9021 1336.3221 L 1208.5354 1336.617 L 1208.2429 1336.9093 L 1207.9507 1337.3479 L 1207.584 1338.0044 L 1207.2916 1338.5916 L 1206.9249 1339.3967 L 1206.6326 1340.3457 L 1206.3403 1341.2252 L 1205.9761 1342.3203 L 1205.6094 1343.4922 L 1205.2427 1344.5897 L 1204.8784 1345.8335 L 1204.658 1347.2952 L 1204.2913 1348.685 L 1203.999 1350.075 L 1203.7065 1351.6111 L 1203.3424 1353.1472 L 1203.1963 1354.0986 L 1203.1218 1354.6115 L 1203.05 1355.1218 L 1202.6833 1357.7554 L 1202.3911 1360.0967 L 1202.0244 1362.7303 L 1201.7319 1365.0717 L 1201.4397 1367.413 L 1201.1472 1370.0466 L 1200.9268 1372.3854 L 1200.7087 1374.801 L 1200.4883 1377.2885 L 1200.2703 1379.6272 L 1200.0498 1382.1147 L 1199.9036 1383.6509 L 1199.8292 1385.1869 L 1199.7573 1386.6511 L 1199.6831 1388.1873 L 1199.6831 1389.6489 L 1199.6831 1391.1133 L 1199.6831 1392.4287 L 1199.7573 1393.6726 L 1199.8292 1394.8445 L 1199.9753 1395.9419 L 1200.1959 1396.8909 L 1200.4165 1397.8423 L 1200.7087 1398.6475 L 1201.073 1399.3064 L 1201.4397 1399.8911 L 1201.8064 1400.3297 L 1202.3911 1400.6221 L 1202.8296 1400.9144 L 1203.4143 1401.1349 L 1204.0732 1401.0605 L 1204.658 1401.0605 L 1205.3889 1400.8425 L 1206.0479 1400.0374 L 1206.7069 1399.4526 L 1207.4377 1398.5757 L 1207.9507 1397.5498 L 1208.6096 1396.6729" scribmaster:penstyle="draw" style="stroke:#0000FF;stroke-width:5.0;stroke-linejoin:round;stroke-linecap:round;stroke-opacity:1.0;fill:none" /><path transform="matrix(1,0,0,1,0,0)" d="M 1237.5029 1341.7356 L 1237.2849 1340.8585 L 1237.1387 1340.1277 L 1236.9182 1339.3967 L 1236.6978 1338.6635 L 1236.4797 1338.0044 L 1236.3335 1337.6401 L 1236.1873 1337.2017 L 1236.113 1336.835 L 1236.0411 1336.5427 L 1235.9668 1336.1041 L 1235.8206 1335.8835 L 1235.7488 1335.5913 L 1235.7488 1335.299 L 1235.7488 1335.0808 L 1235.7488 1334.8604 L 1235.7488 1334.7142 L 1235.7488 1334.4937 L 1235.7488 1334.3475 L 1235.7488 1334.2756 L 1235.7488 1334.2014 L 1235.895 1334.2014 L 1236.0411 1334.1295 L 1236.113 1334.1295 L 1236.3335 1334.2014 L 1236.4797 1334.2014 L 1236.6259 1334.3475 L 1236.8463 1334.4937 L 1237.1387 1334.7142 L 1237.431 1335.0066 L 1237.7952 1335.4451 L 1238.1619 1335.8835 L 1238.4543 1336.3965 L 1238.8928 1337.0554 L 1239.2595 1337.6401 L 1239.698 1338.4454 L 1240.2109 1339.3967 L 1240.6494 1340.2739 L 1241.1622 1341.3713 L 1241.6008 1342.3947 L 1242.0393 1343.564 L 1242.4778 1344.6616 L 1242.9907 1345.8335 L 1243.501 1347.0029 L 1243.9421 1348.2466 L 1244.2344 1349.5647 L 1244.5986 1350.8059 L 1244.9653 1351.9778 L 1245.2576 1353.2216 L 1245.55 1354.5371 L 1245.7705 1355.8552 L 1245.8423 1357.2451 L 1245.9167 1358.635 L 1245.9167 1360.0249 L 1245.7705 1361.4866 L 1245.7705 1362.9509 L 1245.55 1364.4869 L 1245.332 1366.0231 L 1245.1115 1367.631 L 1244.6729 1369.3132 L 1244.0881 1370.7775 L 1243.501 1372.1674 L 1242.9907 1373.6292 L 1242.4778 1374.8728 L 1242.0393 1376.1909 L 1241.4546 1377.3604 L 1240.9417 1378.4579 L 1240.2827 1379.6272 L 1239.7723 1380.5068 L 1239.2595 1381.2377 L 1238.6748 1382.043 L 1238.3081 1382.7737 L 1237.9414 1383.4329 L 1237.5771 1384.0176 L 1237.2104 1384.6023 L 1236.9182 1384.9689 L 1236.6259 1385.4075 L 1236.4053 1385.6997 L 1236.1873 1385.9922 L 1236.0411 1386.1383 L 1235.895 1386.2126 L 1235.7488 1386.2844 L 1235.6744 1386.2844 L 1235.5283 1386.2126 L 1235.5283 1385.7742 L 1235.5283 1385.4075 L 1235.5283 1385.0408 L 1235.4564 1384.456 L 1235.4564 1383.9431 L 1235.5283 1383.1404 L 1235.5283 1382.3352 L 1235.6025 1381.4583 L 1235.6744 1380.3606 L 1235.895 1379.0426 L 1236.0411 1377.727 L 1236.113 1376.3372 L 1236.4053 1374.7267 L 1236.6259 1373.1188 L 1236.8463 1371.2903 L 1237.2849 1369.3876 L 1237.649 1367.4849 L 1238.0901 1365.2897 L 1238.6005 1363.2432 L 1239.185 1361.1224 L 1239.7723 1358.9272 L 1240.5751 1356.8066 L 1241.3083 1354.5371 L 1242.1855 1352.4163 L 1243.0625 1350.075 L 1244.0881 1347.8799 L 1245.1115 1345.6873 L 1246.209 1343.564 L 1247.3784 1341.3713 L 1248.6221 1339.1763 L 1249.9402 1337.0554 L 1251.184 1334.9323 L 1252.5739 1332.8115 L 1253.8894 1330.983 L 1255.2793 1329.0084 L 1256.6692 1327.2518 L 1258.1335 1325.6439 L 1259.5952 1323.8154 L 1261.1313 1322.2793 L 1262.6674 1320.8152 L 1264.1316 1319.3534 L 1265.6677 1318.0354 L 1267.1294 1316.866 L 1268.6655 1315.7683 L 1270.2759 1314.6709 L 1271.6658 1313.7937 L 1273.1277 1312.9143 L 1274.4457 1312.2577 L 1275.7612 1311.891 L 1277.005 1311.5986 L 1278.1769 1311.5244 L 1279.2001 1311.5244 L 1280.2234 1311.5986 L 1281.1028 1312.0371 L 1281.9081 1312.6963 L 1282.6389 1313.3528 L 1283.298 1314.2323 L 1283.8083 1315.2556 L 1284.3931 1316.2788 L 1284.7598 1317.5225 L 1285.052 1318.9124 L 1285.3445 1320.3022 L 1285.565 1321.9127 L 1285.7112 1323.8154 L 1285.783 1325.7158 L 1285.783 1327.7646 L 1285.783 1329.9597 L 1285.7112 1332.1523 L 1285.565 1334.5681 L 1285.3445 1336.7632 L 1285.1982 1339.03 L 1284.9059 1341.5176 L 1284.6879 1343.7845 L 1284.4673 1346.1978 L 1284.2468 1348.3209 L 1284.1007 1350.2955 L 1283.8827 1352.342 L 1283.7366 1354.0986 L 1283.7366 1355.8552 L 1283.6621 1357.6093 L 1283.6621 1359.2915 L 1283.8083 1360.7559 L 1283.8827 1362.3638 L 1284.1007 1363.8279 L 1284.4673 1365.0717 L 1284.6879 1366.3872 L 1285.052 1367.7053 L 1285.4187 1368.949 L 1285.783 1370.1927 L 1286.2239 1371.2161 L 1286.6625 1372.093 L 1287.1011 1372.9727 L 1287.5396 1373.7754 L 1288.0524 1374.5087 L 1288.5627 1375.2395 L 1289.0038 1375.8242 L 1289.3679 1376.2627 L 1289.8065 1376.7013 L 1290.2476 1376.9961 L 1290.5398 1377.1423 L 1290.8323 1377.2141 L 1291.1245 1377.2141 L 1291.1964 1376.7756" scribmaster:penstyle="draw" style="stroke:#0000FF;stroke-width:5.0;stroke-linejoin:round;stroke-linecap:round;stroke-opacity:1.0;fill:none" /><path transform="matrix(1,0,0,1,0,0)" d="M 1358.935 1331.4958 L 1358.2043 1330.983 L 1357.399 1330.324 L 1356.5963 1329.7393 L 1355.7168 1329.0803 L 1354.7654 1328.5698 L 1353.9626 1328.1313 L 1352.937 1327.4724 L 1351.9856 1327.0338 L 1351.0366 1326.5952 L 1350.011 1326.0825 L 1349.0596 1325.5696 L 1348.1107 1325.1311 L 1347.0132 1324.8386 L 1345.9874 1324.4001 L 1345.0361 1324.1079 L 1344.0128 1323.8154 L 1342.9896 1323.595 L 1341.9639 1323.4487 L 1340.9407 1323.3745 L 1339.8431 1323.3745 L 1338.7456 1323.3745 L 1337.648 1323.4487 L 1336.4786 1323.595 L 1335.3092 1323.8154 L 1334.2117 1324.0334 L 1332.9679 1324.4001 L 1331.6499 1324.8386 L 1330.3342 1325.3516 L 1329.0162 1325.8619 L 1327.7007 1326.4491 L 1326.3108 1327.1057 L 1324.9927 1327.8365 L 1323.6771 1328.7878 L 1322.2871 1329.5931 L 1320.9691 1330.5444 L 1319.7253 1331.4958 L 1318.4841 1332.519 L 1317.2405 1333.5424 L 1316.2147 1334.8604 L 1315.1172 1336.0298 L 1314.094 1337.3479 L 1313.1426 1338.6635 L 1312.2655 1339.9072 L 1311.4602 1341.2252 L 1310.8013 1342.469 L 1310.1448 1343.7845 L 1309.5576 1345.0283 L 1309.119 1346.272 L 1308.6804 1347.5157 L 1308.3137 1348.6133 L 1308.0215 1349.6365 L 1307.8035 1350.6597 L 1307.7291 1351.6111 L 1307.7291 1352.4907 L 1307.7291 1353.3677 L 1307.7291 1354.1729 L 1307.8035 1355.05 L 1307.9496 1355.7808 L 1308.242 1356.5117 L 1308.5343 1357.2451 L 1308.901 1357.9016 L 1309.2651 1358.4888 L 1309.7781 1359.0735 L 1310.2909 1359.6582 L 1310.8756 1360.2429 L 1311.5347 1360.6814 L 1312.1194 1361.1943 L 1312.8502 1361.6328 L 1313.6554 1361.8533 L 1314.5325 1362.1458 L 1315.4839 1362.3638 L 1316.5071 1362.3638 L 1317.5327 1362.3638 L 1318.6304 1362.3638 L 1319.7998 1362.0713 L 1321.0435 1361.779 L 1322.3591 1361.3405 L 1323.6771 1361.0481 L 1324.9927 1360.5353 L 1326.4569 1359.9506 L 1327.9187 1359.3658 L 1329.3828 1358.635 L 1330.8447 1357.9016 L 1332.3807 1356.8066 L 1333.9193 1355.8552 L 1335.4553 1354.8295 L 1337.0632 1353.5857 L 1338.5994 1352.4163 L 1340.2097 1350.9521 L 1341.9639 1349.2698 L 1343.6462 1347.5876 L 1345.3308 1345.6873 L 1347.0132 1343.564 L 1348.7673 1341.4432 L 1350.5957 1339.1763 L 1352.3523 1336.835 L 1354.1807 1334.6399 L 1356.0092 1332.0806 L 1357.6196 1329.447 L 1359.3762 1326.7415 L 1361.0583 1323.9617 L 1362.5945 1320.9613 L 1364.2024 1318.0354 L 1365.6666 1314.9631 L 1367.1284 1311.891 L 1368.5183 1308.9651 L 1369.8364 1305.7467 L 1371.0801 1302.6746 L 1372.3239 1299.2356 L 1373.5676 1295.943 L 1374.5165 1292.5066 L 1375.5422 1288.9934 L 1376.4935 1285.7034 L 1377.3706 1282.4849 L 1378.1758 1279.3384 L 1378.9067 1276.0458 L 1379.6376 1272.7556 L 1380.2223 1269.1707 L 1380.7351 1265.8779 L 1381.1736 1262.5134 L 1381.5403 1259.1489 L 1381.9788 1255.9305 L 1382.2712 1252.8584 L 1382.7097 1249.8582 L 1383.0021 1246.6396 L 1383.1508 1243.3496 L 1383.2227 1240.0569 L 1383.3688 1236.9847 L 1383.3688 1233.7664 L 1383.4431 1230.8403 L 1383.4431 1227.7683 L 1383.3688 1225.0603 L 1383.2969 1222.4266 L 1383.0764 1219.7212 L 1382.784 1217.3799 L 1382.3455 1214.8923 L 1382.0532 1212.846 L 1381.6865 1211.015 L 1381.3942 1209.1147 L 1380.9556 1207.6505 L 1380.5171 1206.4067 L 1379.9299 1205.1631 L 1379.4196 1204.1399 L 1378.7605 1203.1885 L 1378.1758 1202.237 L 1377.5168 1201.4343 L 1376.9321 1200.8472 L 1376.3474 1200.3368 L 1375.5422 1199.9701 L 1374.883 1199.824 L 1374.1523 1199.7521 L 1373.4214 1199.7521 L 1372.688 1200.1162 L 1371.8828 1200.3368 L 1371.2263 1200.9214 L 1370.4954 1201.7986 L 1369.762 1202.8242 L 1369.0312 1203.9937 L 1368.3003 1205.4553 L 1367.4208 1206.9197 L 1366.618 1208.6763 L 1365.8127 1211.015 L 1364.9358 1213.2102 L 1363.9844 1215.6975 L 1363.1049 1218.5518 L 1362.2278 1221.4033 L 1361.2764 1224.6217 L 1360.3251 1227.8401 L 1359.3762 1231.2046 L 1358.4966 1234.864 L 1357.6196 1238.7412 L 1356.8887 1242.6904 L 1356.1553 1246.6396 L 1355.5706 1250.5171 L 1355.0603 1254.4663 L 1354.5474 1258.5642 L 1354.0345 1262.5134 L 1353.5217 1266.6113 L 1353.2292 1270.781 L 1353.0833 1274.8765 L 1353.0112 1278.9742 L 1352.937 1282.9235 L 1352.937 1286.8727 L 1352.937 1290.8245 L 1352.937 1294.8479 L 1353.0112 1298.9434 L 1353.0112 1302.8926 L 1353.3037 1306.8442 L 1353.6704 1310.7935 L 1354.1089 1314.5964 L 1354.4731 1318.4739 L 1354.8397 1322.4255 L 1355.0603 1326.3748 L 1355.4988 1330.1777 L 1355.9373 1333.9834 L 1356.3015 1337.5659 L 1356.7424 1341.2252 L 1357.181 1344.5897 L 1357.6196 1348.1748 L 1357.9862 1351.5393 L 1358.4248 1354.7576 L 1358.789 1358.1221 L 1359.2275 1361.1224 L 1359.8147 1363.8998 L 1360.3251 1366.5334 L 1360.8379 1369.167 L 1361.4226 1371.4365 L 1362.0073 1373.9214 L 1362.6663 1376.1166 L 1363.3254 1378.1655 L 1363.9844 1380.2145 L 1364.7153 1381.8967 L 1365.3743 1383.5046 L 1365.959 1384.8945 L 1366.618 1386.2844 L 1367.1284 1387.4563 L 1367.6412 1388.4795 L 1368.154 1389.3567" scribmaster:penstyle="draw" style="stroke:#0000FF;stroke-width:5.0;stroke-linejoin:round;stroke-linecap:round;stroke-opacity:1.0;fill:none" /><path transform="matrix(1,0,0,1,0,0)" d="M 1399.0962 1338.4454 L 1398.9501 1338.2249 L 1398.804 1338.0787 L 1398.6577 1337.9326 L 1398.5834 1337.9326 L 1398.3654 1337.9326 L 1398.073 1337.712 L 1397.9268 1337.712 L 1397.7063 1337.6401 L 1397.7063 1337.7864 L 1397.6345 1338.0787 L 1397.6345 1338.2993 L 1397.6345 1338.5916 L 1397.6345 1339.102 L 1397.6345 1339.543 L 1397.6345 1339.9814 L 1397.6345 1340.5662 L 1397.6345 1341.1509 L 1397.6345 1341.8099 L 1397.7063 1342.687 L 1397.7063 1343.4922 L 1397.7808 1344.2974 L 1397.7808 1345.3206 L 1397.7808 1346.3439 L 1397.8525 1347.5157 L 1397.8525 1348.7595 L 1397.9268 1350.0032 L 1397.9268 1351.3188 L 1397.9988 1352.9292 L 1397.9988 1354.5371 L 1397.9988 1356.2194 L 1397.9988 1358.0479 L 1397.9988 1360.0249 L 1397.9988 1362.0713 L 1397.9988 1364.2665 L 1397.9988 1366.3154 L 1397.9988 1368.6567 L 1397.9988 1370.8494 L 1397.9268 1373.2649 L 1397.9268 1375.6062 L 1397.7808 1377.9451 L 1397.6345 1380.2145 L 1397.5602 1382.4071 L 1397.3422 1384.6765 L 1397.2678 1386.8691 L 1397.0474 1388.9924 L 1396.8293 1391.0388 L 1396.6088 1393.1621 L 1396.3907 1395.2086 L 1396.1703 1396.9652 L 1395.9523 1398.7218 L 1395.7317 1400.4758 L 1395.6575 1402.1582 L 1395.5112 1403.7686 L 1395.365 1405.1584 L 1395.2932 1406.4021 L 1395.2189 1407.646 L 1395.2189 1408.6692 L 1395.2189 1409.6924 L 1395.2932 1410.4976 L 1395.4395 1411.3027 L 1395.5856 1411.9618 L 1395.8062 1412.6926 L 1396.0242 1413.2056 L 1396.1703 1413.7903 L 1396.3907 1414.3031 L 1396.6088 1414.8135 L 1396.9011 1415.3263 L 1397.1216 1415.6906 L 1397.3422 1416.0571 L 1397.4883 1416.1316 L 1397.6345 1416.4238 L 1397.7808 1416.5701" scribmaster:penstyle="draw" style="stroke:#0000FF;stroke-width:5.0;stroke-linejoin:round;stroke-linecap:round;stroke-opacity:1.0;fill:none" /><path transform="matrix(1,0,0,1,0,0)" d="M 1380.0762 1344.0051 L 1380.1504 1343.4922 L 1380.1504 1342.8331 L 1380.1504 1342.1741 L 1380.2223 1341.5176 L 1380.3708 1340.7842 L 1380.5889 1340.0533 L 1381.0275 1339.3225 L 1381.3942 1338.5916 L 1381.907 1337.7864 L 1382.638 1336.9812 L 1383.0764 1336.0298 L 1383.9534 1335.0808 L 1384.9048 1334.0552 L 1385.8562 1333.1782 L 1387.0256 1332.0806 L 1388.2693 1330.983 L 1389.5874 1329.9597 L 1390.9773 1328.8623 L 1392.4391 1327.8365 L 1393.9751 1326.8132 L 1395.7317 1325.8619 L 1397.5602 1324.7644 L 1399.4629 1323.8873 L 1401.4375 1322.9359 L 1403.5583 1322.0588 L 1405.6816 1321.1074 L 1407.9485 1320.2305 L 1410.1437 1319.4995 L 1412.3363 1318.6943 L 1414.752 1317.8892 L 1417.0933 1317.2302 L 1419.432 1316.4993 L 1421.7014 1315.8402 L 1424.1145 1315.4017 L 1426.4558 1314.817 L 1428.7971 1314.4503 L 1431.1384 1314.2323 L 1433.2593 1313.94 L 1435.5261 1313.7937 L 1437.5007 1313.7195 L 1439.624 1313.7195 L 1441.6705 1313.7937 L 1443.6451 1314.0862 L 1445.6222 1314.3042 L 1447.3044 1314.7427 L 1449.0586 1315.2556 L 1450.5947 1315.6941 L 1452.1307 1316.353 L 1453.5206 1316.9377 L 1454.8386 1317.5968 L 1456.1543 1318.3276 L 1457.3262 1319.1328 L 1458.4956 1319.8638 L 1459.447 1320.669 L 1460.106 1321.6204 L 1460.9111 1322.4974 L 1461.4958 1323.3745 L 1461.8601 1324.2539 L 1462.2268 1325.2772 L 1462.4473 1326.3005 L 1462.519 1327.398 L 1462.5935 1328.4956 L 1462.519 1329.6675 L 1462.1549 1330.983 L 1461.7882 1332.3729 L 1461.2754 1333.7628 L 1460.5444 1335.1528 L 1459.8855 1336.617 L 1459.0084 1338.2249 L 1458.057 1339.8353 L 1456.9595 1341.4432 L 1455.7158 1343.1255 L 1454.2539 1344.7358 L 1452.7898 1346.49 L 1451.1819 1348.1748 L 1449.3508 1349.6365 L 1447.5968 1351.247 L 1445.6222 1352.783 L 1443.2809 1354.3191 L 1441.0139 1355.7808 L 1438.5984 1357.2451 L 1436.0391 1358.635 L 1433.5515 1359.9506 L 1430.8436 1361.2686 L 1428.1382 1362.438 L 1425.3583 1363.4612 L 1422.5042 1364.5588 L 1419.7987 1365.364 L 1416.9446 1366.1692 L 1414.239 1366.8282 L 1411.7516 1367.1924 L 1409.1179 1367.631 L 1406.5586 1367.7771 L 1404.1431 1367.8516 L 1401.73 1367.8516 L 1399.4629 1367.7771 L 1397.3422 1367.5591 L 1395.2189 1367.3386 L 1393.2443 1366.9744 L 1391.4877 1366.4615 L 1389.6592 1366.0231 L 1387.977 1365.5103 L 1386.6614 1364.8511 L 1385.2715 1364.3408 L 1384.0996 1363.6818 L 1383.0764 1363.0227 L 1382.0532 1362.438 L 1381.248 1361.779 L 1380.6633 1361.1943 L 1380.1504 1360.5353 L 1379.7119 1359.9506 L 1379.5657 1359.512 L 1379.5657 1358.9272 L 1379.6376 1358.4146 L 1380.0042 1358.0479 L 1380.3708 1357.5374 L 1381.1018 1357.1708 L 1382.0532 1356.8066 L 1383.0764 1356.586 L 1384.392 1356.2937 L 1385.9305 1356.0732 L 1387.4666 1355.927 L 1389.2207 1355.709 L 1391.0492 1355.5627 L 1392.8777 1355.5627 L 1394.9265 1355.5627" scribmaster:penstyle="draw" style="stroke:#0000FF;stroke-width:5.0;stroke-linejoin:round;stroke-linecap:round;stroke-opacity:1.0;fill:none" /><path transform="matrix(1,0,0,1,0,0)" d="M 1473.0537 1355.6346 L 1472.1023 1353.8806 L 1472.1765 1353.9524 L 1470.6405 1351.0264 L 1469.1763 1348.1748 L 1469.3225 1348.0286 L 1469.543 1348.0286 L 1469.9072 1347.8799 L 1470.1995 1347.8081 L 1470.7124 1347.7338 L 1471.2971 1347.5876 L 1471.8818 1347.3696 L 1472.6151 1347.2234 L 1473.346 1346.931 L 1474.2974 1346.6362 L 1475.2488 1346.272 L 1476.272 1345.7592 L 1477.4414 1345.3206 L 1478.685 1344.8821 L 1479.9288 1344.3693 L 1481.3188 1343.8589 L 1482.8549 1343.1998 L 1484.3909 1342.5408 L 1486.0013 1341.8099 L 1487.7579 1341.0046 L 1489.4402 1340.1277 L 1491.1943 1339.3225 L 1492.9509 1338.4454 L 1494.633 1337.6401 L 1496.3154 1336.7632 L 1497.9976 1335.8118 L 1499.608 1335.0066 L 1501.1442 1333.9834 L 1502.6802 1333.1038 L 1503.9958 1332.0806 L 1505.46 1331.2754 L 1506.7756 1330.324 L 1508.0193 1329.447 L 1509.1912 1328.5698 L 1510.2145 1327.6185 L 1511.2377 1326.8132 L 1512.2634 1326.008 L 1513.1404 1325.2053 L 1513.7996 1324.3259 L 1514.6765 1323.595 L 1515.3356 1322.9359 L 1515.9202 1322.1333 L 1516.2869 1321.3999 L 1516.6511 1320.669 L 1516.7255 1320.01 L 1516.9435 1319.279 L 1516.9435 1318.5482 L 1516.8716 1317.8174 L 1516.7974 1317.0121 L 1516.4331 1316.2788 L 1516.0664 1315.6222 L 1515.556 1314.8889 L 1515.0432 1314.2323 L 1514.3123 1313.5732 L 1513.7251 1312.9885 L 1512.9224 1312.4757 L 1512.1891 1311.8167 L 1511.312 1311.3064 L 1510.3606 1310.8678 L 1509.4092 1310.5011 L 1508.4603 1310.2087 L 1507.4346 1309.9164 L 1506.4114 1309.7703 L 1505.3138 1309.5498 L 1504.2163 1309.5498 L 1503.0469 1309.5498 L 1501.875 1309.5498 L 1500.7056 1309.842 L 1499.4619 1310.2087 L 1498.2181 1310.573 L 1496.9744 1311.0858 L 1495.6564 1311.7449 L 1494.1946 1312.2577 L 1492.8047 1312.9143 L 1491.4148 1313.5732 L 1490.0249 1314.3784 L 1488.5607 1315.1836 L 1487.1707 1316.1326 L 1485.709 1317.0121 L 1484.2448 1318.0354 L 1482.8549 1318.9124 L 1481.465 1319.792 L 1480.1494 1320.8152 L 1478.8313 1321.9846 L 1477.5901 1323.082 L 1476.3463 1324.2539 L 1475.1744 1325.4978 L 1473.8589 1326.6671 L 1472.7612 1327.9109 L 1471.7356 1329.0803 L 1470.7866 1330.324 L 1469.8353 1331.6421 L 1469.03 1333.032 L 1468.2249 1334.4937 L 1467.5659 1335.8118 L 1467.0554 1337.1274 L 1466.5427 1338.3711 L 1466.1785 1339.6892 L 1465.958 1340.9329 L 1465.8118 1342.1023 L 1465.7374 1343.2717 L 1465.8835 1344.4436 L 1465.958 1345.613 L 1466.2502 1346.6362 L 1466.6888 1347.5876 L 1467.1273 1348.6133 L 1467.6401 1349.5647 L 1468.3711 1350.3674 L 1469.1019 1351.247 L 1469.9814 1352.124 L 1470.9329 1352.8549 L 1471.8818 1353.5857 L 1472.9792 1354.2448 L 1474.2231 1354.7576 L 1475.5411 1355.3423 L 1476.931 1355.8552 L 1478.467 1356.2194 L 1480.2212 1356.5117 L 1481.9778 1356.7322 L 1484.0267 1356.8066 L 1485.9294 1356.8784 L 1488.1221 1356.8784 L 1490.3173 1356.7322 L 1492.6584 1356.586 L 1495.146 1356.2937 L 1497.6334 1355.927 L 1500.1927 1355.4885 L 1502.8264 1354.9038 L 1505.6062 1354.1729 L 1508.3118 1353.4396 L 1511.1658 1352.5625 L 1513.8713 1351.5393 L 1516.5793 1350.4417 L 1519.4309 1349.198 L 1522.1389 1347.8799 L 1524.8445 1346.49 L 1527.478 1344.8821 L 1530.2578 1343.346 L 1533.0376 1341.7356 L 1535.5251 1339.9814 L 1537.8665 1338.4454 L 1540.1333 1336.7632 L 1542.4028 1335.0808 L 1544.3774 1333.3243 L 1546.4982 1331.7139 L 1548.3267 1330.106 L 1549.8628 1328.5698 L 1551.5449 1327.1057 L 1552.7168 1325.7158 L 1553.594 1324.1797 L 1554.5453 1322.864 L 1555.2043 1321.4741 L 1555.8608 1319.9381 L 1556.2993 1318.6943 L 1556.5942 1317.3763 L 1556.8123 1316.2788 L 1556.8123 1315.0375 L 1556.8866 1313.8656 L 1556.8866 1312.8424 L 1556.8866 1311.8167 L 1556.8123 1310.9397 L 1556.7405 1310.2805 L 1556.5942 1309.5498 L 1556.3738 1309.0369 L 1556.0813 1308.5984 L 1555.9352 1308.2341 L 1555.6428 1308.0137 L 1555.3505 1307.8674 L 1555.13 1307.8674 L 1554.8376 1307.9418 L 1554.6172 1308.2341 L 1554.2529 1308.4521 L 1553.9606 1308.8188 L 1553.6682 1309.3318 L 1553.3734 1309.842 L 1553.0093 1310.5011 L 1552.7168 1311.3782 L 1552.4246 1312.1833 L 1552.1296 1313.2065 L 1551.6912 1314.3784 L 1551.3269 1315.4017 L 1550.8884 1316.6455 L 1550.3755 1317.8892 L 1550.0089 1319.1328 L 1549.5703 1320.5228 L 1549.0575 1321.9846 L 1548.5471 1323.4487 L 1547.9624 1324.9105 L 1547.3752 1326.521 L 1546.8649 1328.0571 L 1546.2777 1329.6675 L 1545.693 1331.4216 L 1545.2544 1333.1038 L 1544.7417 1334.8604 L 1544.2312 1336.617 L 1543.7184 1338.2993 L 1543.2798 1340.0533 L 1542.9132 1341.5894 L 1542.4746 1343.1998 L 1542.1079 1344.7358 L 1541.6694 1346.1978 L 1541.3052 1347.6619 L 1540.9386 1348.9775 L 1540.6462 1350.1494 L 1540.3539 1351.247 L 1540.0615 1352.342 L 1539.8411 1353.2216 L 1539.5486 1354.0986 L 1539.3281 1354.9038 L 1539.182 1355.4885 L 1539.0359 1356.2194 L 1538.964 1356.658 L 1538.964 1357.3169 L 1538.964 1357.7554 L 1538.964 1358.1221 L 1538.964 1358.4146 L 1539.0359 1358.635 L 1539.1101 1358.853 L 1539.2563 1358.9272 L 1539.5486 1358.9993 L 1539.7692 1359.0735 L 1540.0615 1358.9272 L 1540.3539 1358.853 L 1540.718 1358.4888 L 1541.231 1357.976 L 1541.5232 1357.4631 L 1542.0361 1356.7322 L 1542.4746 1355.8552 L 1543.0593 1354.9756 L 1543.6465 1353.8806 L 1544.2312 1352.6368 L 1544.7417 1351.3188 L 1545.4006 1349.8569 L 1546.0597 1348.2466 L 1546.6443 1346.5643 L 1547.3035 1344.6616 L 1547.8882 1342.687 L 1548.6189 1340.8585 L 1549.2781 1338.7378 L 1550.0833 1336.7632 L 1550.668 1334.7861 L 1551.3988 1332.6653 L 1552.204 1330.8369 L 1552.9348 1329.0084 L 1553.6682 1327.2518 L 1554.3992 1325.6439 L 1555.2043 1324.1079 L 1556.0071 1322.6436 L 1556.8866 1321.1819 L 1557.6892 1319.8638 L 1558.4945 1318.6943 L 1559.4458 1317.5968 L 1560.323 1316.4993 L 1561.2743 1315.4017 L 1562.1538 1314.3784 L 1563.1028 1313.1348 L 1564.0542 1312.109 L 1565.0798 1311.0139 L 1566.103 1309.842 L 1567.0544 1308.7445 L 1568.152 1307.7213 L 1569.3214 1306.698 L 1570.419 1305.6006 L 1571.6627 1304.721 L 1572.7603 1303.626 L 1574.0039 1302.7463 L 1575.2477 1301.7949 L 1576.4915 1300.918 L 1577.7351 1300.187 L 1579.125 1299.6023 L 1580.4407 1298.9434 L 1581.7563 1298.3586 L 1583.0 1297.992 L 1584.2437 1297.5535 L 1585.5618 1297.1868 L 1586.9517 1297.1149 L 1588.3416 1297.0405 L 1589.5852 1297.1149 L 1591.0471 1297.479 L 1592.437 1297.7739 L 1593.8269 1298.2843 L 1595.145 1298.7229 L 1596.4604 1299.31 L 1597.8503 1300.0409 L 1599.1685 1300.918 L 1600.4841 1301.7231 L 1601.802 1302.6002 L 1602.8997 1303.5515 L 1604.1409 1304.4287" scribmaster:penstyle="draw" style="stroke:#0000FF;stroke-width:5.0;stroke-linejoin:round;stroke-linecap:round;stroke-opacity:1.0;fill:none" /><path transform="matrix(1,0,0,1,0,0)" d="M 1653.4468 1303.9182 L 1654.1057 1304.721 L 1653.0801 1303.9901 L 1652.4233 1303.1848 L 1652.0569 1302.7463 L 1651.7644 1302.3821 L 1650.0823 1301.2102 L 1648.4717 1300.3333 L 1647.0818 1299.1638 L 1645.6201 1298.3586 L 1644.2302 1297.5535 L 1642.8403 1297.1149 L 1641.376 1296.7483 L 1640.0605 1296.5303 L 1638.7424 1296.3097 L 1637.2808 1296.0173 L 1635.9626 1296.0173 L 1634.865 1296.0173 L 1633.5496 1296.0891 L 1632.4519 1296.1636 L 1631.2825 1296.3097 L 1630.185 1296.4558 L 1629.0874 1296.6764 L 1627.9897 1296.9688 L 1627.0386 1297.261 L 1625.8691 1297.6252 L 1624.8433 1297.9202 L 1623.7458 1298.3586 L 1622.7969 1298.7229 L 1621.9172 1299.1638 L 1621.1865 1299.6742 L 1620.4556 1300.187 L 1619.7222 1300.7 L 1619.1375 1301.2847 L 1618.6272 1301.8694 L 1618.1863 1302.5283 L 1617.822 1303.1848 L 1617.5295 1303.844 L 1617.3835 1304.5748 L 1617.3835 1305.2339 L 1617.3091 1305.9647 L 1617.3835 1306.698 L 1617.5295 1307.429 L 1617.7476 1308.2341 L 1618.04 1308.9651 L 1618.4067 1309.624 L 1618.7734 1310.2805 L 1619.2837 1310.9397 L 1619.7966 1311.6705 L 1620.3093 1312.3296 L 1620.894 1313.0604 L 1621.4788 1313.7937 L 1622.0635 1314.5964 L 1622.6506 1315.3298 L 1623.3816 1316.1326 L 1624.1125 1316.9377 L 1624.7715 1317.8174 L 1625.7229 1318.6201 L 1626.4539 1319.4253 L 1627.3308 1320.3022 L 1628.2104 1321.1074 L 1629.0132 1321.9846 L 1629.9644 1322.7898 L 1630.9158 1323.7412 L 1631.939 1324.5464 L 1632.8904 1325.4233 L 1633.916 1326.3748 L 1635.0112 1327.3262 L 1635.9626 1328.3494 L 1636.9141 1329.3726 L 1637.8652 1330.324 L 1638.8887 1331.4216 L 1639.9143 1332.519 L 1640.9375 1333.6167 L 1641.9607 1334.7142 L 1642.9121 1335.8835 L 1643.9377 1337.0554 L 1644.9612 1338.2249 L 1645.7664 1339.2482 L 1646.7175 1340.2739 L 1647.5947 1341.4432 L 1648.2537 1342.469 L 1648.9846 1343.6384 L 1649.6436 1344.6616 L 1650.0078 1345.6873 L 1650.4463 1346.7849 L 1650.7412 1347.7338 L 1650.8875 1348.685 L 1650.9592 1349.7108 L 1650.9592 1350.7341 L 1650.7412 1351.7573 L 1650.5208 1352.6368 L 1650.154 1353.5857 L 1649.4976 1354.5371 L 1648.9104 1355.4166 L 1648.1077 1356.2937 L 1647.228 1357.1708 L 1646.3511 1357.976 L 1645.2534 1358.7068 L 1644.1558 1359.4377 L 1642.8403 1360.0967 L 1641.5222 1360.7559 L 1640.1323 1361.2686 L 1638.5962 1361.8533 L 1637.06 1362.3638 L 1635.3062 1362.6584 L 1633.6213 1362.9509 L 1631.721 1363.169 L 1629.8184 1363.169 L 1627.9897 1363.2432 L 1625.9409 1363.2432 L 1624.0405 1363.0227 L 1622.138 1362.7303 L 1620.1633 1362.2919 L 1618.2605 1361.7072 L 1616.2117 1361.1943 L 1614.383 1360.5353 L 1612.5547 1359.8044 L 1610.6519 1359.1454 L 1608.8977 1358.2683 L 1607.0669 1357.3912 L 1605.3848 1356.44 L 1603.6306 1355.4885 L 1602.02 1354.5371 L 1600.3379 1353.5139 L 1598.8018 1352.5625 L 1597.4863 1351.6854 L 1596.0962 1350.7341 L 1594.8525 1349.7827 L 1593.8269 1348.9056 L 1592.7292 1348.0286 L 1591.8523 1347.2234 L 1591.1213 1346.49 L 1590.2444 1345.6873 L 1589.6572 1345.0283 L 1589.2185 1344.3693 L 1588.7058 1343.6384 L 1588.2673 1343.0537 L 1587.9749 1342.469 L 1587.6106 1341.8818 L 1587.3901 1341.2971 L 1587.1697 1340.8585 L 1587.0234 1340.3457 L 1586.9517 1339.8353 L 1586.9517 1339.6147 L 1586.9517 1339.2482 L 1586.9517 1339.03 L 1587.0234 1338.7378 L 1587.2439 1338.6635 L 1587.5364 1338.5916 L 1587.9749 1338.5173 L 1588.4133 1338.5173 L 1589.0005 1338.5173 L 1589.9495 1338.9558 L 1590.7546 1339.1763 L 1591.7805 1339.543 L 1593.096 1339.8353 L 1594.3398 1340.1277 L 1595.8757 1340.6381 L 1597.4119 1341.0791 L 1598.8018 1341.4432" scribmaster:penstyle="draw" style="stroke:#0000FF;stroke-width:5.0;stroke-linejoin:round;stroke-linecap:round;stroke-opacity:1.0;fill:none" /><path transform="matrix(1,0,0,1,0,0)" d="M 1687.8276 1300.1128 L 1687.0225 1299.9666 L 1685.7788 1299.3818 L 1684.9761 1299.0895 L 1684.0964 1298.9434 L 1683.2937 1298.869 L 1682.4885 1299.0151 L 1681.6833 1299.0151 L 1680.9524 1299.1638 L 1680.2935 1299.31 L 1679.4883 1299.3818 L 1677.8804 1299.2356 L 1676.198 1299.31 L 1674.7339 1299.5281 L 1673.272 1299.8203 L 1671.7334 1300.1128 L 1670.2717 1300.5537 L 1668.8076 1300.8461 L 1667.4175 1301.1384 L 1665.9558 1301.5027 L 1664.3455 1302.0155 L 1662.8838 1302.6002 L 1661.4937 1303.2593 L 1660.1038 1304.0645 L 1658.7139 1304.721 L 1657.396 1305.6006 L 1656.2266 1306.4775 L 1655.0571 1307.429 L 1653.8853 1308.5984 L 1652.862 1309.5498 L 1651.6902 1310.7217 L 1650.813 1311.8167 L 1650.0078 1313.1348 L 1649.2026 1314.3042 L 1648.4717 1315.5479 L 1647.9614 1316.7197 L 1647.4485 1317.8174 L 1647.01 1318.9867 L 1646.6433 1320.0842 L 1646.2766 1321.1819 L 1646.1304 1322.2793 L 1645.9844 1323.4487 L 1645.9844 1324.6925 L 1645.9844 1325.7158 L 1646.2048 1326.7415 L 1646.4971 1327.7646 L 1646.8638 1328.8623 L 1647.3743 1329.8855 L 1647.741 1330.9111 L 1648.3999 1332.0063 L 1649.2769 1332.8857 L 1650.0823 1333.8372 L 1651.0334 1334.6399 L 1652.0569 1335.5194 L 1653.0801 1336.3221 L 1654.252 1337.0554 L 1655.4214 1337.6401 L 1656.665 1338.2993 L 1657.9087 1338.8839 L 1659.2986 1339.2482 L 1660.8347 1339.761 L 1662.3708 1340.1277 L 1663.835 1340.3457 L 1665.5173 1340.6381 L 1667.2715 1340.7124 L 1669.0281 1340.7124 L 1670.8564 1340.6381 L 1672.831 1340.492 L 1674.8081 1340.1277 L 1676.8545 1339.761 L 1678.9778 1339.2482 L 1680.9524 1338.6635 L 1682.999 1338.0044 L 1685.0479 1337.2736 L 1687.0225 1336.3965 L 1688.9995 1335.5194 L 1691.0459 1334.5681 L 1693.0232 1333.4705 L 1694.7771 1332.519 L 1696.6057 1331.4958 L 1698.2161 1330.4702 L 1699.7522 1329.447 L 1701.3601 1328.4237 L 1702.8242 1327.5442 L 1704.2141 1326.521 L 1705.5298 1325.7158 L 1706.6274 1324.9105 L 1707.5786 1323.8873 L 1708.4583 1323.1565 L 1709.1147 1322.3513 L 1709.9944 1321.546 L 1710.5791 1320.8152 L 1711.0894 1320.1561 L 1711.6023 1319.4995 L 1711.8228 1318.7662 L 1712.115 1318.1815 L 1712.4075 1317.5225 L 1712.6255 1317.0121 L 1712.7742 1316.6455 L 1712.9922 1316.2788 L 1713.1384 1316.0608 L 1713.2844 1315.8402 L 1713.3589 1315.6222 L 1713.4307 1315.5479 L 1713.5051 1315.5479 L 1713.6511 1315.6222 L 1713.7231 1315.7683 L 1713.7974 1316.1326 L 1713.9436 1316.4993 L 1714.0154 1316.866 L 1714.1616 1317.3763 L 1714.3103 1317.9635 L 1714.4563 1318.6201 L 1714.6025 1319.4253 L 1714.7488 1320.1561 L 1714.9668 1321.0356 L 1715.1873 1321.9846 L 1715.3335 1323.0103 L 1715.554 1323.9617 L 1715.772 1325.0566 L 1715.9924 1326.0825 L 1716.2104 1327.1799 L 1716.4309 1328.2776 L 1716.6489 1329.2264 L 1716.9414 1330.3983 L 1717.1619 1331.4216 L 1717.4543 1332.5935 L 1717.7466 1333.6167 L 1718.185 1334.6399 L 1718.5518 1335.6655 L 1718.9902 1336.6888 L 1719.429 1337.494 L 1719.8699 1338.3711 L 1720.4546 1339.1763 L 1721.1111 1339.9072 L 1721.6982 1340.6381 L 1722.3547 1341.2971 L 1723.0881 1341.6638 L 1723.7446 1341.956 L 1724.478 1342.1023 L 1725.0627 1342.028 L 1725.7219 1341.8099 L 1726.3784 1341.4432" scribmaster:penstyle="draw" style="stroke:#0000FF;stroke-width:5.0;stroke-linejoin:round;stroke-linecap:round;stroke-opacity:1.0;fill:none" /><path transform="matrix(1,0,0,1,0,0)" d="M 1739.6208 1310.1344 L 1739.4004 1311.1602 L 1739.1799 1312.2577 L 1738.8875 1313.0604 L 1738.7415 1313.94 L 1738.5234 1314.817 L 1738.231 1316.0608 L 1737.936 1317.1582 L 1737.6438 1318.3276 L 1737.4258 1319.6458 L 1737.2795 1320.9613 L 1737.1333 1322.3513 L 1736.9873 1323.6693 L 1736.8411 1324.9105 L 1736.6206 1326.2285 L 1736.5461 1327.4724 L 1736.3281 1328.6417 L 1736.1821 1329.7393 L 1735.9614 1330.983 L 1735.8154 1332.1523 L 1735.6692 1333.3243 L 1735.4512 1334.2756 L 1735.1562 1335.299 L 1734.864 1336.176 L 1734.646 1337.0554 L 1734.3535 1337.8582 L 1734.133 1338.5916 L 1733.915 1339.2482 L 1733.6946 1339.8353 L 1733.5483 1340.42 L 1733.4023 1340.8585 L 1733.3279 1341.2252 L 1733.1816 1341.5894 L 1733.1099 1341.8099 L 1733.1099 1342.028 L 1733.1099 1342.1023 L 1733.1099 1342.1741 L 1733.1816 1342.1741 L 1733.3279 1342.1023 L 1733.4741 1341.956 L 1733.8408 1341.5894 L 1733.9868 1341.1509 L 1734.2075 1340.7124 L 1734.646 1339.9814 L 1734.9382 1339.3967 L 1735.377 1338.5173 L 1735.9614 1337.494 L 1736.5461 1336.5427 L 1737.2795 1335.4451 L 1738.0105 1333.9834 L 1738.8157 1332.6653 L 1739.6926 1331.2036 L 1740.498 1329.5931 L 1741.375 1328.1313 L 1742.4006 1326.4491 L 1743.4238 1324.7644 L 1744.5933 1322.9359 L 1745.6909 1321.1074 L 1747.009 1319.2048 L 1748.2527 1317.1582 L 1749.5684 1315.2556 L 1750.9583 1313.3528 L 1752.4224 1311.5244 L 1754.0303 1309.4779 L 1755.7126 1307.7932 L 1757.323 1305.8928 L 1759.0771 1304.1362 L 1760.7617 1302.5283 L 1762.4441 1300.918 L 1764.1982 1299.5281 L 1765.8086 1298.2843 L 1767.5627 1297.1149 L 1769.1731 1296.0891 L 1770.8555 1295.2864 L 1772.4658 1294.407 L 1774.0737 1293.7504 L 1775.6841 1293.1632 L 1777.2202 1292.6528 L 1778.8281 1292.3605 L 1780.3667 1292.1399 L 1781.9746 1291.9938 L 1783.5107 1291.9219 L 1784.9749 1291.9219 L 1786.4368 1291.9938 L 1787.8267 1292.2144 L 1789.2908 1292.7246 L 1790.6064 1293.1632 L 1791.9246 1293.7504 L 1793.1682 1294.6274 L 1794.4839 1295.4326 L 1795.6531 1296.4558 L 1796.8252 1297.333 L 1797.9944 1298.4304 L 1799.092 1299.6742 L 1800.0435 1301.0641 L 1801.1409 1302.5283 L 1802.0923 1303.9901 L 1802.8975 1305.5261 L 1803.8464 1307.1366 L 1804.6516 1308.7445 L 1805.3826 1310.355 L 1806.0415 1311.9629 L 1806.7007 1313.7937 L 1807.1392 1315.4761 L 1807.5776 1317.1582 L 1807.9443 1318.6943 L 1808.2366 1320.4485 L 1808.529 1321.9846 L 1808.6753 1323.5206 L 1808.7495 1325.1311 L 1808.7495 1326.5952 L 1808.7495 1328.1313 L 1808.6033 1329.5212 L 1808.4573 1330.8369 L 1808.3086 1332.301 L 1808.0906 1333.6885 L 1807.9443 1335.1528 L 1807.6521 1336.3965 L 1807.4314 1337.6401 L 1807.1392 1338.8839 L 1806.8467 1340.0533 L 1806.6262 1341.0046 L 1806.4082 1342.1023 L 1806.116 1343.0537 L 1805.8955 1343.9307 L 1805.7493 1344.8077 L 1805.603 1345.4668 L 1805.4568 1345.9797 L 1805.3108 1346.6362 L 1805.2363 1347.0771 L 1805.1646 1347.4414 L 1805.0901 1347.8081 L 1805.0901 1348.1003 L 1805.1646 1348.3928 L 1805.2363 1348.6133 L 1805.3826 1348.8313 L 1805.6775 1348.9775 L 1805.8235 1349.1237 L 1806.1877 1349.2698 L 1806.4082 1349.3442" scribmaster:penstyle="draw" style="stroke:#0000FF;stroke-width:5.0;stroke-linejoin:round;stroke-linecap:round;stroke-opacity:1.0;fill:none" /><path transform="matrix(1,0,0,1,0,0)" d="M 1873.0493 1314.4503 L 1872.2441 1313.94 L 1871.439 1313.2065 L 1870.7825 1312.55 L 1869.9773 1311.8167 L 1869.0259 1311.3064 L 1868.2207 1310.8678 L 1867.4155 1310.355 L 1866.6128 1309.842 L 1865.8076 1309.4036 L 1865.1484 1308.8188 L 1864.4895 1308.4521 L 1863.833 1308.0137 L 1863.2458 1307.647 L 1862.7354 1307.2827 L 1862.0764 1306.916 L 1861.5635 1306.6238 L 1861.0532 1306.3313 L 1860.5403 1306.1853 L 1860.0273 1306.0391 L 1859.4426 1305.9647 L 1858.9299 1305.8928 L 1858.2734 1305.8928 L 1857.686 1305.8928 L 1857.1013 1306.2571 L 1856.4424 1306.4775 L 1855.8577 1306.916 L 1855.1267 1307.429 L 1854.396 1307.7932 L 1853.665 1308.3804 L 1852.9316 1309.0369 L 1852.1265 1309.624 L 1851.2495 1310.4268 L 1850.3723 1311.2319 L 1849.5671 1312.1833 L 1848.6157 1312.9885 L 1847.6646 1313.94 L 1846.6411 1314.8889 L 1845.69 1315.9146 L 1844.7385 1316.9377 L 1843.7896 1317.9635 L 1842.7639 1319.0586 L 1841.8867 1320.01 L 1841.0098 1321.0356 L 1840.1301 1321.9846 L 1839.325 1323.0103 L 1838.5222 1324.1079 L 1837.7888 1325.0566 L 1837.2786 1325.9363 L 1836.6914 1326.7415 L 1836.1809 1327.6185 L 1835.8887 1328.4956 L 1835.4502 1329.447 L 1835.2295 1330.3983 L 1835.009 1331.3497 L 1834.863 1332.301 L 1834.791 1333.25 L 1834.791 1334.2014 L 1834.791 1335.0808 L 1834.863 1336.1041 L 1834.9373 1337.0554 L 1835.1553 1338.0787 L 1835.3757 1339.03 L 1835.7424 1339.9814 L 1836.1809 1340.7842 L 1836.6196 1341.6638 L 1837.2041 1342.5408 L 1837.717 1343.2717 L 1838.3762 1343.9307 L 1839.1787 1344.5897 L 1839.9841 1345.1001 L 1840.8635 1345.613 L 1841.9587 1346.0515 L 1843.0562 1346.49 L 1844.228 1346.8567 L 1845.3975 1347.0771 L 1846.6411 1347.2234 L 1848.1055 1347.4414 L 1849.6416 1347.4414 L 1851.2495 1347.5157 L 1852.9316 1347.5157 L 1854.7603 1347.4414 L 1856.5911 1347.2952 L 1858.5657 1347.0029 L 1860.7607 1346.6362 L 1862.8816 1346.1978 L 1865.2229 1345.7592 L 1867.636 1345.1744 L 1869.9773 1344.5897 L 1872.5366 1343.8589 L 1875.1702 1342.9792 L 1877.804 1342.1741 L 1880.5117 1341.1509 L 1883.2173 1340.0533 L 1885.9253 1338.8839 L 1888.6309 1337.5659 L 1891.4106 1336.2502 L 1893.97 1334.9323 L 1896.6777 1333.3962 L 1899.3115 1331.8601 L 1901.9451 1330.324 L 1904.5044 1328.7161 L 1907.1382 1326.8132 L 1909.6973 1324.9849 L 1912.1848 1323.082 L 1914.6724 1320.8152 L 1917.1597 1318.6201 L 1919.573 1316.1326 L 1921.6218 1313.6476 L 1923.9631 1311.1602 L 1926.1582 1308.3059 L 1928.279 1305.6006 L 1930.4741 1302.7463 L 1932.4487 1299.8203 L 1934.2771 1296.6764 L 1936.1057 1293.3093 L 1937.8623 1290.1653 L 1939.5444 1286.8727 L 1941.0806 1283.5082 L 1942.7627 1280.0693 L 1944.227 1276.633 L 1945.7632 1273.048 L 1947.1531 1269.2449 L 1948.3225 1265.5137 L 1949.5662 1261.4902 L 1950.6638 1257.6871 L 1951.5408 1253.9559 L 1952.5664 1250.1504 L 1953.2974 1246.2012 L 1953.8821 1242.252 L 1954.4668 1238.3003 L 1954.9053 1234.3511 L 1955.2002 1230.4019 L 1955.4182 1226.4502 L 1955.5642 1222.5728 L 1955.5642 1218.844 L 1955.5642 1215.0386 L 1955.4182 1211.3098 L 1954.9795 1207.6505 L 1954.541 1203.9937 L 1954.0283 1200.5548 L 1953.2974 1197.3364 L 1952.6384 1194.1924 L 1951.687 1191.1204 L 1950.5894 1188.1199 L 1949.4944 1185.1196 L 1948.2505 1182.4142 L 1946.7864 1179.4882 L 1945.3245 1176.7827 L 1943.7886 1174.149 L 1942.178 1171.7334 L 1940.4958 1169.4666 L 1938.6675 1167.0533 L 1936.8389 1164.8582 L 1934.9363 1162.6631 L 1932.9617 1160.6143 L 1930.987 1159.0062 L 1929.01 1157.1777 L 1926.9634 1155.7878 L 1924.9863 1154.4698 L 1923.0117 1153.3004 L 1920.9629 1152.2772 L 1919.0625 1151.472 L 1917.0137 1150.5925 L 1915.1108 1149.9359 L 1913.2825 1149.5692 L 1911.4539 1149.2026 L 1909.6973 1148.9102 L 1907.8689 1148.8384 L 1906.1868 1148.764 L 1904.5044 1148.8384 L 1902.8223 1149.2769 L 1901.1399 1149.6436 L 1899.5295 1150.2283 L 1897.9216 1151.0334 L 1896.3113 1151.9105 L 1894.7751 1153.008 L 1893.1672 1154.2518 L 1891.7029 1155.7136 L 1890.2412 1157.3958 L 1888.7769 1159.591 L 1887.3127 1161.7117 L 1885.8508 1164.1992 L 1884.533 1166.979 L 1883.1455 1169.7588 L 1881.8274 1172.9772 L 1880.5117 1176.634 L 1879.2681 1180.3652 L 1878.0244 1184.5349 L 1876.9268 1188.779 L 1875.6831 1193.0205 L 1874.5854 1197.6288 L 1873.5623 1202.3833 L 1872.4648 1207.1401 L 1871.439 1212.2588 L 1870.7083 1217.2336 L 1869.831 1222.4266 L 1869.0259 1227.4758 L 1868.5874 1232.5227 L 1868.1489 1237.5693 L 1867.8564 1242.8367 L 1867.7822 1247.7373 L 1867.7102 1252.8584 L 1867.8564 1257.759 L 1868.367 1262.5134 L 1869.0259 1267.2678 L 1869.831 1271.9504 L 1871.0005 1276.5586 L 1872.1724 1281.095 L 1873.634 1285.4828 L 1875.5369 1289.7987 L 1877.291 1294.0427 L 1879.4861 1298.2124 L 1882.1941 1302.2361 L 1885.0457 1306.1853 L 1888.1179 1309.9164 L 1891.4824 1313.4271 L 1894.9214 1316.9377 L 1898.873 1320.3022 L 1903.335 1323.3745 L 1907.7227 1326.5952 L 1912.5515 1329.3726 L 1917.5264 1331.4958 L 1922.7937 1333.7628 L 1928.2073 1335.6655 L 1932.9617 1336.9812" scribmaster:penstyle="draw" style="stroke:#0000FF;stroke-width:5.0;stroke-linejoin:round;stroke-linecap:round;stroke-opacity:1.0;fill:none" /><path transform="matrix(1,0,0,1,0,0)" d="M 1608.0183 1188.9971 L 1607.2874 1188.5585 L 1606.5566 1188.2661 L 1605.8975 1187.9738 L 1605.0205 1187.6072 L 1604.2871 1187.3892 L 1603.4844 1187.1686 L 1602.6792 1186.8762 L 1601.874 1186.73 L 1601.0688 1186.4377 L 1600.1917 1186.1453 L 1599.2402 1185.9248 L 1598.3633 1185.853 L 1597.4863 1185.7787 L 1596.5349 1185.6326 L 1595.509 1185.4863 L 1594.4141 1185.4863 L 1593.3164 1185.4146 L 1592.219 1185.4146 L 1590.9751 1185.4146 L 1589.8777 1185.4863 L 1588.7058 1185.5607 L 1587.4646 1185.7787 L 1586.1465 1185.853 L 1584.8308 1186.1453 L 1583.4409 1186.2915 L 1582.051 1186.6558 L 1580.5869 1187.0225 L 1579.125 1187.4609 L 1577.7351 1187.8276 L 1576.1991 1188.2661 L 1574.5886 1188.779 L 1572.9783 1189.2175 L 1571.3704 1189.7303 L 1569.6881 1190.2407 L 1568.0776 1190.7537 L 1566.3955 1191.2664 L 1564.9336 1192.0691 L 1563.3232 1192.7283 L 1561.7871 1193.4591 L 1560.2511 1194.2643 L 1558.7151 1195.1414 L 1557.3251 1196.167 L 1555.9352 1197.1184 L 1554.471 1198.0674 L 1553.081 1199.1648 L 1551.8374 1200.3368 L 1550.668 1201.6523 L 1549.3499 1202.896 L 1548.1804 1204.1399 L 1547.011 1205.3092 L 1545.9136 1206.6991 L 1544.7417 1208.0891 L 1543.5723 1209.261 L 1542.5491 1210.5764 L 1541.5977 1212.0408 L 1540.718 1213.5024 L 1539.7692 1214.9668 L 1538.964 1216.4285 L 1538.2332 1217.8927 L 1537.4998 1219.4287 L 1536.915 1221.0366 L 1536.256 1222.5728 L 1535.8918 1224.2551 L 1535.5994 1225.7192 L 1535.3071 1227.4016 L 1535.0867 1228.9376 L 1535.0867 1230.4019 L 1535.0867 1231.7917 L 1535.0867 1233.2535 L 1535.3789 1234.6434 L 1535.6714 1235.9614 L 1536.1099 1237.1309 L 1536.6946 1238.3003 L 1537.2817 1239.3978 L 1538.0869 1240.4954 L 1539.0359 1241.3724 L 1540.0615 1242.252 L 1541.159 1243.0571 L 1542.4028 1243.7881 L 1543.6465 1244.5189 L 1545.1083 1245.1036 L 1546.6443 1245.6165 L 1548.1086 1246.055 L 1549.7166 1246.3474 L 1551.3988 1246.5679 L 1553.2273 1246.7141 L 1554.9839 1246.7859 L 1557.1046 1246.7859 L 1559.1536 1246.7859 L 1561.2743 1246.5679 L 1563.69 1246.4216 L 1565.9569 1246.055 L 1568.5906 1245.6884 L 1571.0037 1245.1036 L 1573.7117 1244.5933 L 1576.4915 1243.9343 L 1579.343 1243.129 L 1582.3435 1242.3239 L 1585.2693 1241.4468 L 1588.3416 1240.4954 L 1591.3394 1239.544 L 1594.4141 1238.4465 L 1597.2656 1237.2028 L 1600.2661 1236.0333 L 1603.3381 1234.864 L 1606.3359 1233.5459 L 1609.4082 1232.3021 L 1612.3342 1230.9122 L 1615.2603 1229.5967 L 1618.04 1228.2068 L 1620.8198 1226.8169 L 1623.3074 1225.2064 L 1625.8691 1223.7446 L 1628.3564 1222.2086 L 1630.6953 1220.8906 L 1633.0366 1219.5006 L 1635.2317 1218.0388 L 1637.2808 1216.7952 L 1639.3271 1215.4053 L 1641.158 1214.1615 L 1642.8403 1212.7716 L 1644.4482 1211.456 L 1645.9124 1210.2842 L 1647.0818 1209.1865 L 1648.3257 1208.0171 L 1649.2769 1206.8452 L 1650.0823 1205.604 L 1650.813 1204.3604 L 1651.3259 1203.1885 L 1651.544 1202.019 L 1651.6902 1200.7009 L 1651.6902 1199.5315 L 1651.3259 1198.4341 L 1650.9592 1197.1902 L 1650.3003 1196.0209 L 1649.4231 1194.849 L 1648.4717 1193.6796 L 1647.228 1192.582 L 1645.6919 1191.6306 L 1644.1558 1190.6792 L 1642.3274 1189.7303 L 1640.1323 1188.9252 L 1638.1577 1188.1199 L 1635.7446 1187.3892 L 1633.1108 1186.73 L 1630.5491 1185.9991 L 1627.6975 1185.4863 L 1624.8433 1185.1196 L 1622.0635 1184.7554 L 1618.9915 1184.3888 L 1615.9934 1184.1707 L 1612.9932 1183.9502 L 1609.9954 1183.8041 L 1606.9951 1183.7297 L 1603.9946 1183.658 L 1601.1431 1183.658 L 1598.5095 1183.8041 L 1595.9502 1184.0245 L 1593.3164 1184.2427 L 1590.9751 1184.6093 L 1588.634 1185.0479 L 1586.5132 1185.4863 L 1584.4641 1185.9991 L 1582.3435 1186.5839 L 1580.6611 1187.2429 L 1579.0508 1187.9738 L 1577.5146 1188.779 L 1576.0504 1189.7303 L 1574.7349 1190.8998 L 1573.4192 1192.1436 L 1572.2473 1193.4591 L 1571.2241 1194.9233 L 1570.1266 1196.385 L 1569.2495 1198.0674 L 1568.5161 1199.6777" scribmaster:penstyle="draw" style="stroke:#0000FF;stroke-width:5.0;stroke-linejoin:round;stroke-linecap:round;stroke-opacity:1.0;fill:none" /><path transform="matrix(1,0,0,1,0,0)" d="M 1584.9028 1206.9939 L 1585.0488 1206.4067 L 1585.2693 1205.8964 L 1585.4155 1205.604 L 1585.4875 1205.3835 L 1585.4875 1205.2373 L 1585.4875 1205.0168 L 1585.3413 1204.9451 L 1585.2693 1204.7988 L 1585.1233 1204.7988 L 1584.977 1204.7988 L 1584.9028 1204.7988 L 1584.6104 1204.5065 L 1584.4641 1204.3604 L 1584.3181 1204.3604 L 1584.2437 1204.286 L 1584.0974 1204.4321 L 1584.0256 1204.5784 L 1583.9514 1204.7245 L 1583.8794 1204.8706 L 1583.8052 1205.0168 L 1583.7334 1205.1631 L 1583.6589 1205.3092 L 1583.6589 1205.5298 L 1583.5872 1205.822 L 1583.5872 1206.0425 L 1583.513 1206.335 L 1583.4409 1206.553 L 1583.4409 1206.7734 L 1583.4409 1207.0658 L 1583.4409 1207.3582 L 1583.513 1207.5786 L 1583.5872 1207.871 L 1583.6589 1208.1633 L 1583.8052 1208.3838 L 1583.9514 1208.6018 L 1584.1719 1208.8224 L 1584.3899 1209.1147 L 1584.6104 1209.4071" scribmaster:penstyle="draw" style="stroke:#0000FF;stroke-width:5.0;stroke-linejoin:round;stroke-linecap:round;stroke-opacity:1.0;fill:none" /><path transform="matrix(1,0,0,1,0,0)" d="M 1616.8706 1201.9447 L 1616.5781 1202.5294 L 1616.4321 1203.1885 L 1615.9192 1203.1885 L 1615.627 1203.5552 L 1615.2603 1203.5552 L 1614.8215 1203.7732 L 1614.5293 1203.9937 L 1614.0908 1204.3604 L 1613.8704 1204.7988 L 1613.6523 1205.2373 L 1613.5061 1205.6759 L 1613.3599 1206.0425 L 1613.2136 1206.6272 L 1613.0676 1207.1401 L 1612.8469 1207.4325 L 1612.7009 1207.6505" scribmaster:penstyle="draw" style="stroke:#0000FF;stroke-width:5.0;stroke-linejoin:round;stroke-linecap:round;stroke-opacity:1.0;fill:none" /><path transform="matrix(1,0,0,1,0,0)" d="M 1557.3251 1222.2805 L 1557.2507 1222.2086 L 1557.179 1221.9163 L 1557.1046 1221.6239 L 1557.0327 1221.4033 L 1556.9585 1221.1829 L 1557.0327 1221.0366 L 1557.0327 1220.8906 L 1557.179 1220.8186 L 1557.2507 1220.7444 L 1557.4712 1220.7444 L 1557.6892 1220.7444 L 1557.9098 1220.7444 L 1558.2021 1220.7444 L 1558.4945 1220.8186 L 1558.7869 1220.8906 L 1559.1536 1220.9648 L 1559.592 1221.1111 L 1559.9587 1221.1829 L 1560.3972 1221.2572 L 1560.9102 1221.4033 L 1561.4204 1221.4778 L 1562.0051 1221.6239 L 1562.7385 1221.9163 L 1563.3232 1222.0625 L 1563.9823 1222.2805 L 1564.785 1222.4266 L 1565.5902 1222.6471 L 1566.3955 1222.9395 L 1567.4187 1223.1599 L 1568.2981 1223.3779 L 1569.3214 1223.6704 L 1570.1985 1223.9626 L 1571.2241 1224.3293 L 1572.1755 1224.5498 L 1573.1245 1224.8423 L 1574.2964 1225.1345 L 1575.3196 1225.427 L 1576.4915 1225.645 L 1577.5146 1225.8655 L 1578.5378 1226.1578 L 1579.6355 1226.304 L 1580.7329 1226.5244 L 1581.9048 1226.6707 L 1583.1487 1226.7424 L 1584.3899 1226.8169 L 1585.6335 1226.8169 L 1586.8774 1226.8887 L 1588.1953 1226.8169 L 1589.511 1226.7424 L 1590.9009 1226.5963 L 1592.2908 1226.3783 L 1593.7551 1226.2322 L 1595.145 1225.9397 L 1596.6067 1225.645 L 1597.9966 1225.2808 L 1599.3865 1224.7678 L 1600.7764 1224.2551 L 1602.2407 1223.5985 L 1603.5562 1222.8677 L 1604.946 1222.2086 L 1606.2642 1221.3291 L 1607.5798 1220.452 L 1608.8977 1219.6467 L 1610.2134 1218.6979 L 1611.3853 1217.8927 L 1612.5547 1217.0156 L 1613.7241 1216.2104" scribmaster:penstyle="draw" style="stroke:#0000FF;stroke-width:5.0;stroke-linejoin:round;stroke-linecap:round;stroke-opacity:1.0;fill:none" /></g></g></svg>